<?xml version="1.0" encoding="utf-8"?><svg viewBox="0 0 25 25" xmlns="http://www.w3.org/2000/svg" xmlns:xlink="http://www.w3.org/1999/xlink"><style>:root>svg{display:none}:root>svg:target{display:block}</style><svg viewBox="0 0 20 20" id="clock" xmlns="http://www.w3.org/2000/svg"><g opacity=".5"><path d="M10 .833A9.167 9.167 0 1019.167 10 9.177 9.177 0 0010 .833zM10 17.5a7.5 7.5 0 117.5-7.5 7.51 7.51 0 01-7.5 7.5z"/><path d="M10.833 9.655V5a.833.833 0 10-1.666 0v5c0 .221.088.433.244.59l2.5 2.5a.833.833 0 001.178-1.18l-2.256-2.255z"/></g></svg><svg viewBox="0 0 20 20" id="hit" xmlns="http://www.w3.org/2000/svg"><path d="M14.422 6.243c-3.57-2.172-1.895-5.238-1.824-5.365A.586.586 0 0012.09 0c-1.837 0-3.276.522-4.276 1.552-1.71 1.76-1.63 4.498-1.597 5.667.004.13.007.242.007.325 0 .868.14 1.67.263 2.377.079.456.147.85.16 1.159.012.331-.048.407-.05.41-.01.01-.081.049-.276.049a.657.657 0 01-.53-.235c-.565-.634-.604-2.365-.496-3.307a.586.586 0 00-.582-.654c-1.521 0-2.658 2.488-2.658 4.712 0 1.046.21 2.07.625 3.045a8.082 8.082 0 001.7 2.527C5.894 19.157 7.89 20 10 20c2.119 0 4.114-.83 5.618-2.34a7.893 7.893 0 002.327-5.605c0-2.692-2.107-4.95-3.523-5.812z"/></svg><svg viewBox="0 0 16 10" id="lips" xmlns="http://www.w3.org/2000/svg"><path d="M15.977 3.517C14.305 2.778 12.692 0 11.07 0 9.448 0 9.06.789 7.98.79 6.9.788 6.512 0 4.89 0 3.269 0 1.538 2.976.035 3.579c-.113.045.055.207.357.555C1.78 5.737 2.615 10 7.976 10c5.511 0 6.515-4.686 7.747-6.085.22-.25.327-.365.254-.398zm-4.71 1.096C10.727 4.826 9.65 6.114 8 6.114c-1.782 0-2.684-1.22-3.29-1.501-.015-.007-.017-.044 0-.052.333-.154 1.032-.675 1.751-.675.72 0 .987.198 1.466.198.48 0 .899-.198 1.618-.198.72 0 1.42.522 1.75.675.016.007.005.039-.029.052z"/></svg><svg viewBox="0 0 20 20" id="price" xmlns="http://www.w3.org/2000/svg"><path d="M18.17 4.996h-.248V2.579c0-1.008-.82-1.829-1.83-1.829H2.827A2.828 2.828 0 00.015 3.298c-.021.1-.014-.798-.014 13.128a2.827 2.827 0 002.824 2.824h15.346c1.008 0 1.829-.82 1.829-1.829V6.825c0-1.009-.82-1.83-1.83-1.83zM2.827 2.006h13.267c.316 0 .573.257.573.573v2.417H2.826A1.57 1.57 0 011.26 3.5a1.57 1.57 0 011.566-1.495zM18.17 17.994H2.826a1.57 1.57 0 01-1.568-1.568V5.776c.449.3.988.476 1.568.476H18.17c.316 0 .573.257.573.573v2.547h-4.728c-1.61 0-2.92 1.31-2.92 2.92 0 1.61 1.31 2.92 2.92 2.92h4.728v2.21a.573.573 0 01-.573.572zm.573-4.039h-4.728a1.665 1.665 0 01-1.664-1.663c0-.917.747-1.664 1.664-1.664h4.728v3.327z"/></svg><svg viewBox="0 0 15 15" id="relax" xmlns="http://www.w3.org/2000/svg"><g clip-path="url(#eclip0_78_1050)"><path d="M10.806 6.836h.013A2.598 2.598 0 0013.4 4.241c0-.783-.424-1.427-.937-2.127L10.806 0 9.147 2.114c-.513.7-.936 1.344-.936 2.127a2.598 2.598 0 002.595 2.595z"/><path d="M10.806 7.715h-.015a3.478 3.478 0 01-3.46-3.474c0-.473.108-.896.279-1.292L6.646 1.72 3.25 6.05l-.008.01c-.866 1.181-1.643 2.367-1.643 3.893A5.053 5.053 0 006.626 15h.02a5.052 5.052 0 005.047-5.047c0-.833-.232-1.566-.584-2.251-.1.009-.2.013-.303.013z"/></g><defs><clipPath id="eclip0_78_1050"><path d="M0 0h15v15H0z"/></clipPath></defs></svg><svg fill="none" viewBox="0 0 25 25" id="telegram" xmlns="http://www.w3.org/2000/svg"><path d="M12.5 25C19.404 25 25 19.404 25 12.5S19.404 0 12.5 0 0 5.596 0 12.5 5.596 25 12.5 25z" fill="url(#fpaint0_linear_80_1451)"/><path fill-rule="evenodd" clip-rule="evenodd" d="M5.658 12.368c3.644-1.588 6.074-2.634 7.29-3.14 3.471-1.444 4.193-1.695 4.663-1.703.103-.002.334.024.484.145.222.18.224.572.199.831-.188 1.977-1.002 6.773-1.416 8.987-.175.937-.52 1.25-.854 1.281-.726.067-1.278-.48-1.98-.94-1.1-.721-1.722-1.17-2.79-1.874-1.234-.813-.434-1.26.269-1.99.184-.192 3.382-3.101 3.444-3.365.008-.033.015-.156-.058-.22-.073-.066-.18-.044-.259-.026-.11.025-1.867 1.187-5.272 3.485-.5.342-.95.51-1.356.5-.446-.009-1.305-.252-1.943-.46-.783-.254-1.405-.388-1.35-.82.028-.225.338-.456.93-.69z" fill="#fff"/><defs><linearGradient id="fpaint0_linear_80_1451" x1="12.5" y1="0" x2="12.5" y2="24.805" gradientUnits="userSpaceOnUse"><stop stop-color="#2AABEE"/><stop offset="1" stop-color="#229ED9"/></linearGradient></defs></svg><svg fill="none" viewBox="0 0 19 21" id="viber" xmlns="http://www.w3.org/2000/svg"><path d="M11.5.5h-4c-3.85 0-7 3.15-7 7v3c0 2.7 1.575 5.175 4 6.325v3.35c0 .3.375.45.575.225l2.9-2.9H11.5c3.85 0 7-3.15 7-7v-3c0-3.85-3.15-7-7-7zm2.625 13.125l-1.025 1c-1.075 1.05-3.85-.15-6.3-2.65-2.45-2.5-3.525-5.3-2.5-6.35l1-1c.375-.375 1-.35 1.425.025l1.45 1.5c.525.525.3 1.425-.375 1.625-.475.15-.8.675-.65 1.15.25 1.1 1.65 2.5 2.7 2.775.475.1 1-.15 1.175-.625.225-.675 1.125-.875 1.625-.35l1.45 1.5c.4.35.4.975.025 1.4zM10.4 5.25c-.1 0-.2 0-.3.025-.175.025-.35-.125-.375-.3-.025-.175.125-.35.3-.375.125-.025.25-.025.375-.025A3.34 3.34 0 0113.725 7.9c0 .125 0 .25-.025.375-.025.175-.2.325-.375.3-.175-.025-.325-.2-.3-.375 0-.1.025-.2.025-.3.025-1.45-1.175-2.65-2.65-2.65zm2 2.675a.33.33 0 01-.325.325.33.33 0 01-.325-.325c0-.725-.6-1.325-1.325-1.325a.33.33 0 01-.325-.325.33.33 0 01.325-.325c1.075-.025 1.975.875 1.975 1.975zM14.95 9a.35.35 0 01-.425.25.321.321 0 01-.225-.4c.075-.3.1-.6.1-.925 0-2.2-1.8-4-4-4h-.3c-.175 0-.35-.125-.35-.3s.125-.35.3-.35c.125 0 .25-.025.35-.025 2.575 0 4.675 2.1 4.675 4.675 0 .35-.05.725-.125 1.075z" fill="#fff"/></svg><svg viewBox="0 0 20 18" id="vip" xmlns="http://www.w3.org/2000/svg"><path d="M18.558 2.85c-.799 0-1.446.705-1.446 1.572 0 .564.273 1.055.684 1.334-.869 1.304-2.094 2.817-3.357 3.256-1.663.578-3.213-2.972-3.976-5.081.566-.213.978-.794.978-1.483 0-.867-.646-1.571-1.443-1.571-.794 0-1.442.704-1.442 1.57 0 .69.412 1.27.978 1.484C8.773 6.04 7.224 9.59 5.56 9.012 4.298 8.573 3.07 7.06 2.203 5.756c.41-.279.683-.769.683-1.334 0-.867-.648-1.571-1.444-1.571C.647 2.85 0 3.555 0 4.422c0 .87.647 1.573 1.442 1.573.016 0 .027-.004.043-.006l1.948 9.05h13.133l1.95-9.05c.013.001.027.006.043.006.794 0 1.441-.703 1.441-1.573 0-.867-.648-1.571-1.442-1.571zM16.5 15.358H3.498v1.765h13v-1.765z"/></svg><svg fill="none" viewBox="0 0 25 25" id="whatsapp" xmlns="http://www.w3.org/2000/svg"><path d="M12.5 2.5c-5.525 0-10 4.475-10 10 0 2.2.7 4.225 1.9 5.875L3.025 22 7 20.85a9.894 9.894 0 005.5 1.65c5.525 0 10-4.475 10-10s-4.475-10-10-10zm5.325 14.15L16.75 17.7c-1.125 1.125-4.1-.1-6.725-2.75-2.625-2.625-3.8-5.6-2.75-6.7L8.35 7.175c.4-.4 1.075-.4 1.5 0l1.575 1.575c.55.55.325 1.5-.4 1.725-.5.175-.85.725-.675 1.225.275 1.175 1.8 2.625 2.925 2.9.5.125 1.075-.175 1.225-.675.225-.725 1.175-.95 1.725-.4L17.8 15.1c.4.425.4 1.1.025 1.55z" fill="#fff"/></svg></svg>