<svg width="20" height="20" viewBox="0 0 20 20" xmlns="http://www.w3.org/2000/svg">
<g opacity="0.5">
<path d="M10.0002 0.833252C8.18717 0.833252 6.41489 1.37087 4.90744 2.37811C3.39999 3.38536 2.22507 4.817 1.53127 6.49199C0.837468 8.16698 0.655937 10.0101 1.00964 11.7883C1.36333 13.5664 2.23637 15.1998 3.51835 16.4817C4.80034 17.7637 6.43368 18.6368 8.21184 18.9905C9.99 19.3442 11.8331 19.1626 13.5081 18.4688C15.1831 17.775 16.6147 16.6001 17.622 15.0927C18.6292 13.5852 19.1668 11.8129 19.1668 9.99992C19.164 7.56965 18.1973 5.23974 16.4788 3.52127C14.7603 1.80281 12.4304 0.836119 10.0002 0.833252ZM10.0002 17.4999C8.51681 17.4999 7.06676 17.0601 5.83339 16.2359C4.60002 15.4118 3.63873 14.2405 3.07107 12.8701C2.50341 11.4996 2.35489 9.9916 2.64428 8.53675C2.93367 7.08189 3.64797 5.74551 4.69687 4.69662C5.74576 3.64773 7.08213 2.93342 8.53699 2.64403C9.99185 2.35464 11.4998 2.50317 12.8703 3.07082C14.2407 3.63848 15.4121 4.59978 16.2362 5.83314C17.0603 7.06651 17.5002 8.51656 17.5002 9.99992C17.4977 11.9883 16.7068 13.8945 15.3008 15.3005C13.8948 16.7065 11.9885 17.4975 10.0002 17.4999Z" />
<path d="M10.8334 9.65508V5.00008C10.8334 4.77907 10.7456 4.56711 10.5893 4.41083C10.4331 4.25455 10.2211 4.16675 10.0001 4.16675C9.77907 4.16675 9.56711 4.25455 9.41083 4.41083C9.25455 4.56711 9.16675 4.77907 9.16675 5.00008V10.0001C9.1668 10.2211 9.25462 10.433 9.41091 10.5892L11.9109 13.0892C12.0681 13.241 12.2786 13.325 12.4971 13.3231C12.7156 13.3212 12.9246 13.2336 13.0791 13.0791C13.2336 12.9246 13.3212 12.7156 13.3231 12.4971C13.325 12.2786 13.241 12.0681 13.0892 11.9109L10.8334 9.65508Z" />
</g>
</svg>
