<svg width="20" height="20" viewBox="0 0 20 20" xmlns="http://www.w3.org/2000/svg">
<path d="M14.4224 6.24273C10.8526 4.07082 12.5266 1.00531 12.5985 0.877891C12.7027 0.696563 12.7024 0.473477 12.5976 0.292461C12.4929 0.111445 12.2996 0 12.0905 0C10.2528 0 8.81385 0.522109 7.8135 1.55191C6.10416 3.31145 6.18346 6.05 6.21732 7.21941C6.22111 7.34898 6.22432 7.4609 6.22432 7.54406C6.22432 8.41234 6.36361 9.21391 6.48654 9.92117C6.56576 10.377 6.63416 10.7705 6.64635 11.0799C6.65936 11.4113 6.59885 11.4871 6.59631 11.4902C6.58768 11.5005 6.51576 11.5387 6.32147 11.5387C6.09982 11.5387 5.93647 11.4663 5.79166 11.3039C5.22619 10.6698 5.18709 8.93855 5.29522 7.99664C5.31455 7.83055 5.26201 7.66414 5.1508 7.5393C5.03963 7.41445 4.88041 7.34305 4.71326 7.34305C3.19197 7.34305 2.05518 9.83086 2.05518 12.0552C2.05518 13.1009 2.26553 14.1252 2.68033 15.0998C3.08135 16.0419 3.65314 16.8921 4.38002 17.627C5.89365 19.1572 7.88947 20 9.99975 20C12.1186 20 14.1139 19.1691 15.6181 17.6606C17.1185 16.1559 17.9449 14.1652 17.9449 12.0552C17.9449 9.36293 15.8383 7.10414 14.4224 6.24273Z"/>
</svg>
