<svg width="16" height="10" viewBox="0 0 16 10"  xmlns="http://www.w3.org/2000/svg">
<path d="M15.977 3.51705C14.3046 2.77845 12.692 0 11.0696 0C9.44757 0 9.06099 0.788926 7.98001 0.789361C6.8991 0.788926 6.51249 0 4.8905 0C3.26804 0 1.53726 2.97584 0.0354744 3.57874C-0.077673 3.62417 0.0901745 3.78565 0.392223 4.1344C1.78043 5.73716 2.61534 10 7.97642 10C13.4873 10 14.4911 5.314 15.7225 3.91527C15.9437 3.66408 16.0503 3.5495 15.977 3.51705ZM11.2663 4.61302C10.7283 4.82627 9.65003 6.11406 8.00021 6.11406C6.21767 6.11406 5.31566 4.89329 4.71075 4.61302C4.6953 4.60587 4.69263 4.56932 4.71075 4.56096C5.04278 4.4071 5.74163 3.88594 6.46135 3.88594C7.18087 3.88594 7.44788 4.08436 7.92747 4.08443C8.40714 4.08436 8.82562 3.88594 9.54515 3.88594C10.2649 3.88594 10.965 4.40765 11.2957 4.56096C11.3107 4.56782 11.2996 4.59979 11.2663 4.61302Z" />
</svg>
