<svg width="15" height="15" viewBox="0 0 15 15" xmlns="http://www.w3.org/2000/svg">
<g clip-path="url(#clip0_78_1050)">
<path d="M10.8059 6.83636H10.8187C12.2438 6.82968 13.401 5.6681 13.401 4.24124C13.401 3.45786 12.9773 2.81416 12.4644 2.11432L10.8059 0L9.14729 2.11432C8.63448 2.8141 8.21069 3.45777 8.21069 4.24121C8.21069 5.67217 9.37489 6.83636 10.8059 6.83636Z" />
<path d="M10.8063 7.71532L10.7908 7.71526C8.88208 7.70711 7.33187 6.15183 7.33187 4.24126C7.33187 3.76784 7.43888 3.34462 7.60979 2.94931L6.64592 1.72046L3.25025 6.04927L3.24164 6.06066C2.376 7.24129 1.599 8.42737 1.599 9.95306C1.599 12.7293 3.85224 14.9892 6.62606 15L6.64662 15.0001C9.42917 15.0001 11.693 12.736 11.693 9.95312C11.693 9.1195 11.4608 8.38732 11.1091 7.70199C11.0092 7.71063 10.9083 7.71532 10.8063 7.71532Z" />
</g>
<defs>
<clipPath id="clip0_78_1050">
<rect width="15" height="15"/>
</clipPath>
</defs>
</svg>
