<svg width="25" height="25" viewBox="0 0 25 25" fill="none" xmlns="http://www.w3.org/2000/svg">
<path d="M12.5 25C19.4036 25 25 19.4036 25 12.5C25 5.59644 19.4036 0 12.5 0C5.59644 0 0 5.59644 0 12.5C0 19.4036 5.59644 25 12.5 25Z" fill="url(#paint0_linear_80_1451)"/>
<path fill-rule="evenodd" clip-rule="evenodd" d="M5.65832 12.3681C9.30232 10.7804 11.7322 9.73375 12.948 9.22809C16.4194 7.78424 17.1407 7.53341 17.6109 7.52511C17.7143 7.5233 17.9455 7.54894 18.0952 7.67047C18.3174 7.85075 18.3187 8.24205 18.294 8.50104C18.1059 10.4776 17.2919 15.2741 16.8778 17.4879C16.7026 18.4246 16.3575 18.7387 16.0236 18.7694C15.2977 18.8362 14.7465 18.2897 14.0434 17.8289C12.9432 17.1077 12.3217 16.6588 11.2538 15.955C10.0197 15.1418 10.8197 14.6948 11.523 13.9643C11.7071 13.7731 14.9054 10.864 14.9673 10.6001C14.9751 10.5671 14.9822 10.444 14.9092 10.3791C14.8361 10.3141 14.7282 10.3363 14.6504 10.354C14.54 10.379 12.7825 11.5407 9.3778 13.8389C8.87893 14.1815 8.42707 14.3484 8.02224 14.3397C7.5759 14.33 6.7174 14.0873 6.07917 13.8798C5.29636 13.6254 4.67419 13.4908 4.72839 13.0587C4.75661 12.8336 5.06657 12.6034 5.65832 12.3681Z" fill="white"/>
<defs>
<linearGradient id="paint0_linear_80_1451" x1="12.5" y1="0" x2="12.5" y2="24.8047" gradientUnits="userSpaceOnUse">
<stop stop-color="#2AABEE"/>
<stop offset="1" stop-color="#229ED9"/>
</linearGradient>
</defs>
</svg>
