<svg width="19" height="21" viewBox="0 0 19 21" fill="none" xmlns="http://www.w3.org/2000/svg">
<path d="M11.5 0.5H7.5C3.65 0.5 0.5 3.65 0.5 7.5V10.5C0.5 13.2 2.075 15.675 4.5 16.825V20.175C4.5 20.475 4.875 20.625 5.075 20.4L7.975 17.5H11.5C15.35 17.5 18.5 14.35 18.5 10.5V7.5C18.5 3.65 15.35 0.5 11.5 0.5ZM14.125 13.625L13.1 14.625C12.025 15.675 9.25 14.475 6.8 11.975C4.35 9.475 3.275 6.675 4.3 5.625L5.3 4.625C5.675 4.25 6.3 4.275 6.725 4.65L8.175 6.15C8.7 6.675 8.475 7.575 7.8 7.775C7.325 7.925 7 8.45 7.15 8.925C7.4 10.025 8.8 11.425 9.85 11.7C10.325 11.8 10.85 11.55 11.025 11.075C11.25 10.4 12.15 10.2 12.65 10.725L14.1 12.225C14.5 12.575 14.5 13.2 14.125 13.625ZM10.4 5.25C10.3 5.25 10.2 5.25 10.1 5.275C9.925 5.3 9.75 5.15 9.725 4.975C9.7 4.8 9.85 4.625 10.025 4.6C10.15 4.575 10.275 4.575 10.4 4.575C12.225 4.575 13.725 6.075 13.725 7.9C13.725 8.025 13.725 8.15 13.7 8.275C13.675 8.45 13.5 8.6 13.325 8.575C13.15 8.55 13 8.375 13.025 8.2C13.025 8.1 13.05 8 13.05 7.9C13.075 6.45 11.875 5.25 10.4 5.25ZM12.4 7.925C12.4 8.1 12.25 8.25 12.075 8.25C11.9 8.25 11.75 8.1 11.75 7.925C11.75 7.2 11.15 6.6 10.425 6.6C10.25 6.6 10.1 6.45 10.1 6.275C10.1 6.1 10.25 5.95 10.425 5.95C11.5 5.925 12.4 6.825 12.4 7.925ZM14.95 9C14.9 9.175 14.725 9.3 14.525 9.25C14.35 9.2 14.25 9.025 14.3 8.85C14.375 8.55 14.4 8.25 14.4 7.925C14.4 5.725 12.6 3.925 10.4 3.925C10.3 3.925 10.2 3.925 10.1 3.925C9.925 3.925 9.75 3.8 9.75 3.625C9.75 3.45 9.875 3.275 10.05 3.275C10.175 3.275 10.3 3.25 10.4 3.25C12.975 3.25 15.075 5.35 15.075 7.925C15.075 8.275 15.025 8.65 14.95 9Z" fill="white"/>
</svg>
