<svg viewBox="0 0 20 18" xmlns="http://www.w3.org/2000/svg">
                                    <path
                                        d="M18.5582 2.85087C17.7592 2.85087 17.1121 3.55548 17.1121 4.42226C17.1121 4.98611 17.385 5.47699 17.7961 5.75594C16.9275 7.05957 15.702 8.57348 14.4387 9.01204C12.7763 9.58962 11.2264 6.04001 10.4634 3.93051C11.029 3.71765 11.4409 3.13665 11.4409 2.44751C11.4409 1.58073 10.7947 0.876953 9.99829 0.876953C9.20356 0.876953 8.55647 1.58069 8.55647 2.44751C8.55647 3.13665 8.96755 3.71681 9.53398 3.93051C8.77275 6.04001 7.22451 9.58962 5.55957 9.01204C4.29799 8.57348 3.06987 7.05957 2.20308 5.75594C2.61245 5.47703 2.88622 4.98699 2.88622 4.42226C2.88622 3.55548 2.23826 2.85087 1.44181 2.85087C0.647084 2.85087 0 3.55548 0 4.42226C0 5.29163 0.647084 5.99537 1.44181 5.99537C1.45813 5.99537 1.46927 5.99107 1.48474 5.98936L3.43292 15.0393H16.5663L18.5153 5.98936C18.529 5.99024 18.5427 5.99537 18.5591 5.99537C19.3529 5.99537 20 5.29163 20 4.42226C19.9991 3.55548 19.352 2.85087 18.5582 2.85087Z" />
                                    <path d="M16.4993 15.3577H3.49902V17.123H16.4993V15.3577Z" />
                                </svg>