<svg width="25" height="25" viewBox="0 0 25 25" fill="none" xmlns="http://www.w3.org/2000/svg">
<path d="M12.5 2.5C6.975 2.5 2.5 6.975 2.5 12.5C2.5 14.7 3.2 16.725 4.4 18.375L3.025 22L7 20.85C8.575 21.9 10.475 22.5 12.5 22.5C18.025 22.5 22.5 18.025 22.5 12.5C22.5 6.975 18.025 2.5 12.5 2.5ZM17.825 16.65L16.75 17.7C15.625 18.825 12.65 17.6 10.025 14.95C7.4 12.325 6.225 9.35 7.275 8.25L8.35 7.175C8.75 6.775 9.425 6.775 9.85 7.175L11.425 8.75C11.975 9.3 11.75 10.25 11.025 10.475C10.525 10.65 10.175 11.2 10.35 11.7C10.625 12.875 12.15 14.325 13.275 14.6C13.775 14.725 14.35 14.425 14.5 13.925C14.725 13.2 15.675 12.975 16.225 13.525L17.8 15.1C18.2 15.525 18.2 16.2 17.825 16.65Z" fill="white"/>
</svg>
