<svg width="30" height="30" viewBox="0 0 30 30" fill="none" xmlns="http://www.w3.org/2000/svg">
<path d="M25.6388 6.5625H21.6131L21.1444 5.15625C20.9184 4.47344 20.4828 3.87932 19.8996 3.4585C19.3163 3.03768 18.6152 2.81161 17.8959 2.8125H12.1041C11.385 2.81195 10.6841 3.03816 10.1011 3.45895C9.51806 3.87974 9.08256 4.47367 8.85656 5.15625L8.38688 6.5625H4.36125C3.45352 6.5635 2.58325 6.92453 1.94139 7.56639C1.29953 8.20825 0.938493 9.07852 0.9375 9.98625V23.7675C0.939484 24.6746 1.30096 25.5439 1.94271 26.1849C2.58447 26.826 3.45417 27.1865 4.36125 27.1875H25.6425C26.5496 27.1855 27.4189 26.824 28.0599 26.1823C28.701 25.5405 29.0615 24.6708 29.0625 23.7638V9.9825C29.0605 9.07542 28.699 8.20612 28.0573 7.56506C27.4155 6.92401 26.5458 6.56349 25.6388 6.5625ZM27.1875 23.7638C27.187 24.1744 27.0237 24.568 26.7333 24.8583C26.443 25.1487 26.0494 25.312 25.6388 25.3125H4.36125C3.95065 25.312 3.55701 25.1487 3.26667 24.8583C2.97633 24.568 2.813 24.1744 2.8125 23.7638V9.9825C2.81399 9.57255 2.97775 9.17987 3.26799 8.89034C3.55822 8.60081 3.9513 8.438 4.36125 8.4375H9.06281C9.25949 8.43735 9.45115 8.37535 9.61065 8.26027C9.77015 8.14519 9.88941 7.98286 9.95156 7.79625L10.635 5.74594C10.7376 5.43755 10.9348 5.16932 11.1985 4.97932C11.4622 4.78933 11.779 4.68722 12.1041 4.6875H17.8959C18.2211 4.68715 18.5381 4.78933 18.8019 4.97953C19.0656 5.16972 19.2627 5.43823 19.365 5.74688L20.0484 7.79625C20.1106 7.98286 20.2299 8.14519 20.3894 8.26027C20.5489 8.37535 20.7405 8.43735 20.9372 8.4375H25.6388C26.0494 8.438 26.443 8.60133 26.7333 8.89167C27.0237 9.18201 27.187 9.57565 27.1875 9.98625V23.7638Z" fill="white"/>
<path d="M15 9.375C13.6094 9.375 12.2499 9.78738 11.0936 10.56C9.93737 11.3326 9.03615 12.4307 8.50398 13.7155C7.9718 15.0003 7.83255 16.4141 8.10386 17.778C8.37516 19.1419 9.04482 20.3948 10.0282 21.3781C11.0115 22.3614 12.2643 23.0311 13.6283 23.3024C14.9922 23.5737 16.406 23.4345 17.6907 22.9023C18.9755 22.3701 20.0737 21.4689 20.8463 20.3126C21.6189 19.1563 22.0313 17.7969 22.0313 16.4063C22.0293 14.5421 21.2878 12.7548 19.9697 11.4366C18.6515 10.1184 16.8642 9.37699 15 9.375ZM15 21.5625C13.9802 21.5625 12.9833 21.2601 12.1353 20.6935C11.2874 20.1269 10.6265 19.3216 10.2362 18.3795C9.84599 17.4373 9.74387 16.4005 9.94283 15.4003C10.1418 14.4001 10.6329 13.4813 11.354 12.7602C12.0751 12.0391 12.9939 11.548 13.9941 11.3491C14.9943 11.1501 16.031 11.2522 16.9732 11.6425C17.9154 12.0328 18.7207 12.6937 19.2873 13.5416C19.8538 14.3895 20.1563 15.3864 20.1563 16.4063C20.1548 17.7733 19.611 19.084 18.6444 20.0506C17.6777 21.0173 16.3671 21.561 15 21.5625Z" fill="white"/>
<path d="M24.375 12.1875C24.8928 12.1875 25.3125 11.7678 25.3125 11.25C25.3125 10.7322 24.8928 10.3125 24.375 10.3125C23.8572 10.3125 23.4375 10.7322 23.4375 11.25C23.4375 11.7678 23.8572 12.1875 24.375 12.1875Z" fill="white"/>
</svg>
