<?xml version="1.0" encoding="utf-8"?><svg viewBox="0 0 25 25" xmlns="http://www.w3.org/2000/svg" xmlns:xlink="http://www.w3.org/1999/xlink"><style>:root>svg{display:none}:root>svg:target{display:block}</style><svg fill="none" viewBox="0 0 25 25" id="telegram" xmlns="http://www.w3.org/2000/svg"><path d="M12.5 25C19.404 25 25 19.404 25 12.5S19.404 0 12.5 0 0 5.596 0 12.5 5.596 25 12.5 25z" fill="url(#apaint0_linear_80_1451)"/><path fill-rule="evenodd" clip-rule="evenodd" d="M5.658 12.368c3.644-1.588 6.074-2.634 7.29-3.14 3.471-1.444 4.193-1.695 4.663-1.703.103-.002.334.024.484.145.222.18.224.572.199.831-.188 1.977-1.002 6.773-1.416 8.987-.175.937-.52 1.25-.854 1.281-.726.067-1.278-.48-1.98-.94-1.1-.721-1.722-1.17-2.79-1.874-1.234-.813-.434-1.26.269-1.99.184-.192 3.382-3.101 3.444-3.365.008-.033.015-.156-.058-.22-.073-.066-.18-.044-.259-.026-.11.025-1.867 1.187-5.272 3.485-.5.342-.95.51-1.356.5-.446-.009-1.305-.252-1.943-.46-.783-.254-1.405-.388-1.35-.82.028-.225.338-.456.93-.69z" fill="#fff"/><defs><linearGradient id="apaint0_linear_80_1451" x1="12.5" y1="0" x2="12.5" y2="24.805" gradientUnits="userSpaceOnUse"><stop stop-color="#2AABEE"/><stop offset="1" stop-color="#229ED9"/></linearGradient></defs></svg><svg fill="none" viewBox="0 0 19 21" id="viber" xmlns="http://www.w3.org/2000/svg"><path d="M11.5.5h-4c-3.85 0-7 3.15-7 7v3c0 2.7 1.575 5.175 4 6.325v3.35c0 .3.375.45.575.225l2.9-2.9H11.5c3.85 0 7-3.15 7-7v-3c0-3.85-3.15-7-7-7zm2.625 13.125l-1.025 1c-1.075 1.05-3.85-.15-6.3-2.65-2.45-2.5-3.525-5.3-2.5-6.35l1-1c.375-.375 1-.35 1.425.025l1.45 1.5c.525.525.3 1.425-.375 1.625-.475.15-.8.675-.65 1.15.25 1.1 1.65 2.5 2.7 2.775.475.1 1-.15 1.175-.625.225-.675 1.125-.875 1.625-.35l1.45 1.5c.4.35.4.975.025 1.4zM10.4 5.25c-.1 0-.2 0-.3.025-.175.025-.35-.125-.375-.3-.025-.175.125-.35.3-.375.125-.025.25-.025.375-.025A3.34 3.34 0 0113.725 7.9c0 .125 0 .25-.025.375-.025.175-.2.325-.375.3-.175-.025-.325-.2-.3-.375 0-.1.025-.2.025-.3.025-1.45-1.175-2.65-2.65-2.65zm2 2.675a.33.33 0 01-.325.325.33.33 0 01-.325-.325c0-.725-.6-1.325-1.325-1.325a.33.33 0 01-.325-.325.33.33 0 01.325-.325c1.075-.025 1.975.875 1.975 1.975zM14.95 9a.35.35 0 01-.425.25.321.321 0 01-.225-.4c.075-.3.1-.6.1-.925 0-2.2-1.8-4-4-4h-.3c-.175 0-.35-.125-.35-.3s.125-.35.3-.35c.125 0 .25-.025.35-.025 2.575 0 4.675 2.1 4.675 4.675 0 .35-.05.725-.125 1.075z" fill="#fff"/></svg><svg fill="none" viewBox="0 0 25 25" id="whatsapp" xmlns="http://www.w3.org/2000/svg"><path d="M12.5 2.5c-5.525 0-10 4.475-10 10 0 2.2.7 4.225 1.9 5.875L3.025 22 7 20.85a9.894 9.894 0 005.5 1.65c5.525 0 10-4.475 10-10s-4.475-10-10-10zm5.325 14.15L16.75 17.7c-1.125 1.125-4.1-.1-6.725-2.75-2.625-2.625-3.8-5.6-2.75-6.7L8.35 7.175c.4-.4 1.075-.4 1.5 0l1.575 1.575c.55.55.325 1.5-.4 1.725-.5.175-.85.725-.675 1.225.275 1.175 1.8 2.625 2.925 2.9.5.125 1.075-.175 1.225-.675.225-.725 1.175-.95 1.725-.4L17.8 15.1c.4.425.4 1.1.025 1.55z" fill="#fff"/></svg></svg>